<svg xmlns="http://www.w3.org/2000/svg" xmlns:xlink="http://www.w3.org/1999/xlink" id="Group_34850" data-name="Group 34850" width="64.684" height="74.277" viewBox="0 0 64.684 74.277"><defs><clipPath id="clip-path"><rect id="Rectangle_728" data-name="Rectangle 728" width="64.684" height="74.277" fill="#0f1b71"></rect></clipPath></defs><g id="Group_34850-2" data-name="Group 34850" clip-path="url(#clip-path)"><path id="Path_36855" data-name="Path 36855" d="M92.94,0c1.447.232,2.9.414,4.339.707A25.6,25.6,0,0,1,105.807,4.2a27,27,0,0,1,10.365,11.812,26.727,26.727,0,0,1,2.219,15.9,27.136,27.136,0,0,1-11.655,18.381,13.238,13.238,0,0,0-4.124,4.3c-.078.139-.149.282-.263.5h3.164v2.394c-1.189,0-2.367.022-3.542-.011-.478-.013-.7.137-.771.615-.08.569-.214,1.131-.341,1.78h2.279v2.4h-2.355c0,1,0,1.933,0,2.865,0,1.647-.239,1.894-1.859,1.935-.142,0-.284.024-.428.036a19.042,19.042,0,0,1-.517,2.256A7.111,7.111,0,0,1,85.03,70.646a12.771,12.771,0,0,1-.944-3c-.106-.472-.263-.573-.7-.577-1.472-.015-1.766-.331-1.767-1.8,0-.963,0-1.925,0-2.963H79.286V59.907h2.27c-.18-.791-.321-1.508-.525-2.206-.033-.114-.347-.2-.533-.206-1.183-.018-2.367-.009-3.607-.009V55.121h3.124a11.06,11.06,0,0,0-3.273-4.009,40.851,40.851,0,0,1-5.8-4.9,27.06,27.06,0,0,1-7.175-16.558c-.072-.956-.092-1.917-.137-2.893H66c.082,1.291.1,2.521.247,3.735A24.389,24.389,0,0,0,76.414,47.848c2.3,1.681,4.437,3.47,5.656,6.08a1.873,1.873,0,0,0,2.081,1.209c4.93-.056,9.861-.034,14.792-.013a.959.959,0,0,0,1.037-.639,14.27,14.27,0,0,1,5.011-5.886A24.8,24.8,0,0,0,114.5,37.012a24.553,24.553,0,0,0-.631-20.308A24.653,24.653,0,0,0,99.815,3.921a23.137,23.137,0,0,0-8.3-1.484c-.6,0-1.2,0-1.909,0-.05-.822-.1-1.629-.149-2.437Zm5.873,57.525H83.546l.407,2.336h14.5l.36-2.336M86.47,67.1a4.7,4.7,0,0,0,4.983,4.731c2.573-.15,4.745-2.446,4.443-4.731Zm11.885-4.759H84.068v2.31H98.354Z" transform="translate(-54.081)" fill="#0f1b71"></path><path id="Path_36856" data-name="Path 36856" d="M55.634,0a1.988,1.988,0,0,1,.846,1.653A4.739,4.739,0,0,0,60.9,5.98a2.05,2.05,0,0,1,1.323.686c.543.765-.1,1.652-1.2,1.736a4.874,4.874,0,0,0-2.8,1.058,4.571,4.571,0,0,0-1.746,3.215c-.114,1.167-.479,1.657-1.217,1.685-.612.023-1.2-.5-1.3-1.6A4.641,4.641,0,0,0,49.5,8.414c-1.014-.094-1.5-.557-1.424-1.353.066-.679.512-1.024,1.462-1.1a4.6,4.6,0,0,0,3.989-2.711,5.113,5.113,0,0,0,.456-1.734A1.684,1.684,0,0,1,54.909,0Zm1.147,7.22L55.264,5.556,53.583,7.165l1.6,1.609L56.782,7.22" transform="translate(-40.854)" fill="#0f1b71"></path><path id="Path_36857" data-name="Path 36857" d="M264.44,42.659a4.85,4.85,0,0,1,6.218,6.1,6.2,6.2,0,0,1,3.408,3.417,5.9,5.9,0,0,1-.234,4.882,4.823,4.823,0,0,1,.008,8.964,6.014,6.014,0,0,1,.488,4.031,5.809,5.809,0,0,1-3.166,4.006c-.317.162-.54.26-.433.74a4.724,4.724,0,0,1-6.012,5.672c-.068-.019-.139-.026-.241-.045a1.47,1.47,0,0,0-.18.2,4.739,4.739,0,0,1-5.367,2.309,4.8,4.8,0,0,1-3.6-4.916c-.018-4.832-.006-9.665-.006-14.5q0-9.134,0-18.267a4.873,4.873,0,0,1,2.448-4.612,4.712,4.712,0,0,1,6.365,1.555l.306.463m1.728,28.288a19.644,19.644,0,0,1,2.49.99,1.261,1.261,0,0,0,1.266.085,3.577,3.577,0,1,0-4.939-3.928c-.045.23-.242.593-.4.61a20.24,20.24,0,0,1-2.056.029,5.9,5.9,0,0,1,2.88-5.083,5.619,5.619,0,0,1,6.11-.031,1.574,1.574,0,0,0,1.691.036,2.387,2.387,0,0,0,1.192-2.77,2.023,2.023,0,0,0-3.029-1.3,5.885,5.885,0,0,1-8.761-5.233c.519,0,1.048.029,1.573-.008s.746.108.834.683a3.5,3.5,0,0,0,3.542,2.909,3.574,3.574,0,0,0,3.486-3,3.534,3.534,0,0,0-2.293-3.913,1.338,1.338,0,0,0-.979.118,4.889,4.889,0,0,1-2.6.792V49.615c1.593-.379,2.369-1.25,2.318-2.555a2.363,2.363,0,0,0-2.08-2.248c-1.316-.185-2.166.524-2.791,2.323h-2.436a22.362,22.362,0,0,1,.8-2.313,1.293,1.293,0,0,0-.367-1.89,2.362,2.362,0,0,0-3.712,1,3.666,3.666,0,0,0-.163,1.208q-.012,16.427-.006,32.854a5.433,5.433,0,0,0,.023.652,2.4,2.4,0,0,0,1.912,2.024,2.467,2.467,0,0,0,2.48-1.139.837.837,0,0,0-.029-1.045,3.682,3.682,0,0,1-.734-2.532h2.25c.5,1.714,1.336,2.448,2.655,2.339a2.383,2.383,0,0,0,2.184-2.07c.156-1.351-.586-2.25-2.317-2.769Z" transform="translate(-217.013 -33.995)" fill="#0f1b71"></path><path id="Path_36858" data-name="Path 36858" d="M98.755,65.982a4.84,4.84,0,0,1-.157-8.917,19.6,19.6,0,0,1-.423-3,5.516,5.516,0,0,1,3.027-4.94c.568-.322.739-.537.62-1.235a4.727,4.727,0,0,1,5.942-5.374c.115.03.23.062.372.1a1.578,1.578,0,0,0,.185-.2,4.761,4.761,0,0,1,5.373-2.316,4.821,4.821,0,0,1,3.6,4.853c.024,1.91.005,3.82.005,5.729q0,13.562,0,27.124a4.878,4.878,0,0,1-3.115,4.916,4.7,4.7,0,0,1-5.659-1.846c-.243-.371-.411-.516-.9-.394a4.726,4.726,0,0,1-5.755-5.673c.1-.413.027-.588-.349-.779a5.873,5.873,0,0,1-2.85-7.787c.027-.065.045-.134.086-.256m12.724,9.909a16.689,16.689,0,0,1-.965,2.461,1.023,1.023,0,0,0,.061,1.293,2.362,2.362,0,0,0,2.97.746,2.473,2.473,0,0,0,1.335-2.452q-.018-16.457-.008-32.913c0-.193,0-.387-.019-.579a2.391,2.391,0,0,0-1.928-2.081,2.341,2.341,0,0,0-2.485,1.229,1.132,1.132,0,0,0,.048.887,4.339,4.339,0,0,1,.731,2.606c-.229.013-.418.031-.607.033-.553,0-1.106,0-1.61,0a8.562,8.562,0,0,0-.448-1.208,2.364,2.364,0,0,0-2.745-1.086,2.406,2.406,0,0,0-1.693,2.282,2.436,2.436,0,0,0,1.822,2.338c.206.06.518.247.531.4.058.663.025,1.334.025,2.03a5.056,5.056,0,0,1-2.615-.771,1.428,1.428,0,0,0-1.041-.131,3.523,3.523,0,0,0-2.272,3.855,3.579,3.579,0,0,0,7.044.193c.046-.23.086-.462.126-.677h2.334a5.782,5.782,0,0,1-2.8,5,5.618,5.618,0,0,1-6.167.077,1.6,1.6,0,0,0-1.754-.009,2.377,2.377,0,0,0-1.137,2.729,2.022,2.022,0,0,0,3.077,1.279,6.107,6.107,0,0,1,3.857-.632,5.916,5.916,0,0,1,4.862,5.837h-2.281c-.046-.261-.079-.473-.122-.684a3.579,3.579,0,0,0-7.032.153A3.51,3.51,0,0,0,102.854,72a1.44,1.44,0,0,0,1.039-.142A5.007,5.007,0,0,1,106.5,71.1c0,.606-.02,1.18.006,1.751.02.434-.109.609-.575.709a2.351,2.351,0,0,0-1.78,2.749A2.375,2.375,0,0,0,106.9,78.2a2.438,2.438,0,0,0,2.038-2.308Z" transform="translate(-81.357 -33.935)" fill="#0f1b71"></path><path id="Path_36859" data-name="Path 36859" d="M14.353,87.237a1.211,1.211,0,0,1-1.061,1.17,10.439,10.439,0,0,0-2.414.667,4.468,4.468,0,0,0-2.465,3.689c-.03.239-.044.482-.1.716a1.089,1.089,0,0,1-1.143.917,1.083,1.083,0,0,1-1.134-.925,12.273,12.273,0,0,0-.4-1.9A4.547,4.547,0,0,0,1.775,88.5c-.168-.023-.336-.039-.5-.067C.441,88.3-.012,87.862,0,87.214s.483-1.1,1.312-1.175A5.041,5.041,0,0,0,4.29,84.867a4.672,4.672,0,0,0,1.648-3.2,3.955,3.955,0,0,1,.132-.783,1.069,1.069,0,0,1,1.075-.807,1.059,1.059,0,0,1,1.118.746,3.728,3.728,0,0,1,.146.852,4.759,4.759,0,0,0,4.068,4.28c.287.042.579.054.862.111a1.178,1.178,0,0,1,1.014,1.168m-5.58,0L7.182,85.609,5.6,87.208l1.583,1.625,1.594-1.6" transform="translate(0 -68.066)" fill="#0f1b71"></path></g></svg>