<svg xmlns="http://www.w3.org/2000/svg" xmlns:xlink="http://www.w3.org/1999/xlink" id="Group_34851" data-name="Group 34851" width="74.748" height="74.748" viewBox="0 0 74.748 74.748"><defs><clipPath id="clip-path"><rect id="Rectangle_729" data-name="Rectangle 729" width="74.748" height="74.748" fill="#0f1b71"></rect></clipPath></defs><g id="Group_34851-2" data-name="Group 34851" clip-path="url(#clip-path)"><path id="Path_36860" data-name="Path 36860" d="M33.133,74.771a5,5,0,0,1-2.818-1.56,28.192,28.192,0,0,1-1.582-2.639,5.043,5.043,0,0,1-6.709-4.03,4.934,4.934,0,0,1-5.665-1.228,4.877,4.877,0,0,1-.621-5.911,4.919,4.919,0,0,1-4.022-4.075c-.392-2.19.611-3.866,2.327-5.243l-3.586-3.592c-.789-.79-.927-1.413-.43-1.934q.774-.812,1.989.4c1.153,1.151,2.293,2.317,3.474,3.44a1.1,1.1,0,0,0,.852.248,4.968,4.968,0,0,1,6.015,3.434c.037.113.085.222.151.394a5.153,5.153,0,0,1,4.085-.911,4.874,4.874,0,0,1,2.567,1.439c1.635,1.719,1.761,3.744.376,6.491a5.27,5.27,0,0,1,2.794,1.713,5.026,5.026,0,0,1,1.142,3.181,5.069,5.069,0,0,1,4.856,1.861,4.913,4.913,0,0,1,.6,5.152,2.525,2.525,0,0,0,3.2-.652,2.609,2.609,0,0,0-.015-3.465c-2.311-2.333-4.64-4.647-6.961-6.97a4.321,4.321,0,0,1-.495-.535,1.077,1.077,0,0,1,1.478-1.529,4.132,4.132,0,0,1,.592.539c2.994,2.991,5.977,5.994,8.983,8.973a2.764,2.764,0,1,0,3.831-3.972q-4.475-4.452-8.929-8.924c-.82-.82-.944-1.384-.425-1.933.533-.564,1.145-.443,1.982.394,3.457,3.457,6.9,6.929,10.389,10.353a3.891,3.891,0,0,0,1.8.99A2.575,2.575,0,0,0,57.2,63.229a2.734,2.734,0,0,0-.594-3.276q-4.838-4.863-9.7-9.705c-.361-.361-.727-.718-1.082-1.085a1.109,1.109,0,1,1,1.542-1.54c2.877,2.868,5.725,5.765,8.64,8.593a3.852,3.852,0,0,0,1.946.991,2.466,2.466,0,0,0,2.634-1.441,2.674,2.674,0,0,0-.355-3.063c-.615-.689-1.29-1.324-1.943-1.977q-8.2-8.205-16.408-16.409c-.12-.12-.246-.234-.625-.593a2.875,2.875,0,0,1-.369.715q-2.061,2.169-4.157,4.3a5.088,5.088,0,0,1-7.252.265,5.032,5.032,0,0,1,.088-7.3c1.538-1.558,3.089-3.1,4.633-4.654a.854.854,0,0,0,.064-.163c-1.147-.281-2.282-.564-3.42-.836C28.6,25.52,26.351,25,24.112,24.448a1.085,1.085,0,0,0-1.212.346c-.722.789-1.5,1.53-2.265,2.275a1.1,1.1,0,0,1-1.669.086,1.085,1.085,0,0,1,.122-1.614c.787-.793,1.6-1.564,2.449-2.4-.247-.258-.438-.466-.638-.666Q10.891,12.468.882,2.456C.576,2.15.293,1.819,0,1.5V.77C.772-.189,1.3-.214,2.2.682q10.45,10.445,20.909,20.882a2.745,2.745,0,0,0,1.226.679q6.226,1.525,12.471,2.973a2.752,2.752,0,0,0,1.211.023q6.275-1.476,12.535-3.015a2.23,2.23,0,0,0,.98-.555c1.892-1.857,3.758-3.74,5.633-5.614.137-.137.27-.281.418-.407a1.091,1.091,0,0,1,1.513-.007,1.034,1.034,0,0,1,.04,1.507q-3.355,3.4-6.764,6.752a2.041,2.041,0,0,1-.932.369c-4.791,1.16-9.585,2.3-14.373,3.473a2.081,2.081,0,0,0-.924.5c-1.686,1.65-3.349,3.323-5.011,5a2.85,2.85,0,0,0-.156,4.159,2.889,2.889,0,0,0,4.217-.217c1.7-1.741,3.386-3.492,5.081-5.236.953-.98,1.364-.976,2.351.011q7.945,7.945,15.888,15.894c.206.206.376.447.592.708.271-.255.464-.427.646-.61q6.348-6.345,12.694-12.69a3.725,3.725,0,0,1,.593-.537,1.008,1.008,0,0,1,1.385.174.993.993,0,0,1,.1,1.336,4.463,4.463,0,0,1-.543.588Q67.655,43.145,61.33,49.46a5.877,5.877,0,0,1-.728.52c1.789,1.508,2.831,3.191,2.4,5.411A4.916,4.916,0,0,1,59,59.4a4.977,4.977,0,0,1-.666,5.97C57.011,66.85,55.377,67.18,52.7,66.58a5.038,5.038,0,0,1-7.813,3.412,5.045,5.045,0,0,1-2.6,3.387,4.747,4.747,0,0,1-4.287.117.858.858,0,0,0-.966.094,25.168,25.168,0,0,1-2.3,1.182Zm-13.072-9.9a5.8,5.8,0,0,0,1.665-.777c2.038-1.947,4.048-3.929,5.982-5.979a2.734,2.734,0,0,0-3.871-3.823q-3.063,2.916-5.977,5.986a2.452,2.452,0,0,0-.327,2.93,3.035,3.035,0,0,0,2.528,1.664m7.344,3.811a9.811,9.811,0,0,0,1.536-.867,14.7,14.7,0,0,0,1.532-1.554,2.708,2.708,0,0,0,.04-3.8,2.742,2.742,0,0,0-3.814-.151,20.7,20.7,0,0,0-1.8,1.8,2.585,2.585,0,0,0-.406,2.984c.495,1.041,1.36,1.539,2.911,1.582M13.843,54.475a2.622,2.622,0,0,0,1.564,2.5,2.591,2.591,0,0,0,2.93-.37,10.286,10.286,0,0,0,1.39-1.388,2.738,2.738,0,0,0-1.485-4.435c-1.757-.439-4.315,1.623-4.4,3.545,0,.049,0,.1,0,.146m19.824,18.1a3.5,3.5,0,0,0,2.9-1.564,2.57,2.57,0,0,0,.306-3,2.639,2.639,0,0,0-2.563-1.473,3.359,3.359,0,0,0-2.475,1.478,2.553,2.553,0,0,0-.459,2.905,2.6,2.6,0,0,0,2.294,1.65" transform="translate(0 -0.024)" fill="#0f1b71"></path><path id="Path_36861" data-name="Path 36861" d="M0,177.649c.835-.906,1.329-.914,2.22-.027q2.763,2.753,5.526,5.507a1.167,1.167,0,0,1,.337,1.555,1.081,1.081,0,0,1-1.8.077q-2.594-2.562-5.162-5.149c-.392-.393-.749-.821-1.122-1.233v-.73" transform="translate(0 -142.457)" fill="#0f1b71"></path><path id="Path_36862" data-name="Path 36862" d="M144.88,17.083c2.77-2.7,5.529-5.3,8.187-8a3.787,3.787,0,0,0,.671-4.415,3.885,3.885,0,0,0-3.6-2.438,4.007,4.007,0,0,0-3.877,2.242c-.082.148-.105.353-.222.453-.328.281-.692.722-1.04.721a1.424,1.424,0,0,1-1.015-.733,4.325,4.325,0,0,0-3.04-2.592,4.14,4.14,0,0,0-4.063,6.724c.43.5.93.929,1.359,1.424a1.011,1.011,0,0,1-.013,1.452.95.95,0,0,1-1.38.165c-1.869-1.568-3.3-3.391-3.122-6.024A6.014,6.014,0,0,1,137.739.483a6.138,6.138,0,0,1,6.754,1.349c.161.146.307.308.5.5.155-.148.309-.29.457-.438a6.377,6.377,0,0,1,8.89-.122,6.259,6.259,0,0,1,.277,8.862c-2.852,2.992-5.8,5.891-8.721,8.818a1.1,1.1,0,0,1-1.782,0q-1.868-1.846-3.7-3.726a1.1,1.1,0,1,1,1.554-1.531c1.006.984,2,1.981,2.914,2.889" transform="translate(-107.638 0)" fill="#0f1b71"></path><path id="Path_36863" data-name="Path 36863" d="M313.561,14.591c-1.037-.025-1.552-.936-1.13-1.642a3,3,0,0,1,.478-.545q5.513-5.518,11.03-11.03c.171-.171.354-.442.546-.455a2.31,2.31,0,0,1,1.259.161.872.872,0,0,1,.234,1.233,2.95,2.95,0,0,1-.5.614q-5.511,5.519-11.036,11.025a5.94,5.94,0,0,1-.878.639" transform="translate(-251.39 -0.727)" fill="#0f1b71"></path><path id="Path_36864" data-name="Path 36864" d="M258.854,162c-.485,0-.972.025-1.455-.006a.976.976,0,0,1-.982-.981.994.994,0,0,1,.889-1.141,6.92,6.92,0,0,1,1.379-.043,7.812,7.812,0,0,0,6.247-2.579c.432-.46.881-.9,1.338-1.339a1.12,1.12,0,0,1,1.622-.112,1.084,1.084,0,0,1-.048,1.617c-.744.765-1.482,1.544-2.287,2.241a9.443,9.443,0,0,1-6.7,2.342" transform="translate(-206.414 -125.183)" fill="#0f1b71"></path><path id="Path_36865" data-name="Path 36865" d="M326.878,127.728a4.682,4.682,0,0,1-.511.915c-.768.81-1.561,1.6-2.363,2.372a1.091,1.091,0,1,1-1.536-1.535c.794-.819,1.576-1.656,2.439-2.4a1.456,1.456,0,0,1,1.183-.216c.311.092.516.543.789.861" transform="translate(-259.258 -102.094)" fill="#0f1b71"></path><path id="Path_36866" data-name="Path 36866" d="M314.548,181.568c-.213.256-.4.673-.694.782a1.353,1.353,0,0,1-1.128-.1,17.092,17.092,0,0,1-1.961-1.929.969.969,0,0,1,.037-1.384.945.945,0,0,1,1.367-.179,27.52,27.52,0,0,1,2.11,2.087c.134.141.151.394.269.726" transform="translate(-249.948 -143.723)" fill="#0f1b71"></path></g></svg>