<?xml version="1.0" encoding="iso-8859-1"?>
<!-- Uploaded to: SVG Repo, www.svgrepo.com, Generator: SVG Repo Mixer Tools -->
<svg height="800px" width="800px" version="1.1" id="Layer_1" xmlns="http://www.w3.org/2000/svg" xmlns:xlink="http://www.w3.org/1999/xlink" 
	 viewBox="0 0 512 512" xml:space="preserve">
<path style="fill:#FB0125;" d="M242.824,12.533c-6.132-6.132-16.074-6.132-22.206,0L168.21,64.941
	c-6.132,6.132-6.132,16.074,0,22.206L421.72,340.656c6.132,6.132,16.074,6.132,22.206,0l52.408-52.408
	c6.132-6.132,6.132-16.074,0-22.206L242.824,12.533z"/>
<path style="fill:#CC111E;" d="M439.803,322.573L186.294,69.063c-6.132-6.132-6.132-16.074,0-22.206L168.21,64.941
	c-6.132,6.132-6.132,16.074,0,22.206L421.72,340.656c6.132,6.132,16.074,6.132,22.206,0l18.084-18.084
	C455.878,328.705,445.935,328.705,439.803,322.573z"/>
<path style="fill:#FEA921;" d="M141.138,323.261l50.744,50.744c2.47,2.471,6.476,2.471,8.947,0l9.712-9.712
	c2.47-2.47,2.47-6.476,0-8.947l-50.744-50.744c-2.47-2.471-6.476-2.471-8.947,0l-9.712,9.712
	C138.668,316.784,138.668,320.79,141.138,323.261z"/>
<path style="fill:#E58200;" d="M210.541,355.347l-18.084-18.084c2.47,2.47,2.471,6.476,0,8.947l-9.712,9.712
	c-2.471,2.471-6.476,2.471-8.947,0l18.084,18.084c2.47,2.47,6.476,2.471,8.947,0l9.712-9.712
	C213.012,361.823,213.012,357.817,210.541,355.347z"/>
<path style="fill:#FEA921;" d="M146.988,329.111l39.044,39.044L66.298,499.742c-4.871,5.526-13.396,5.795-18.605,0.586
	l-32.876-32.876c-5.209-5.209-4.941-13.734,0.586-18.605L146.988,329.111z"/>
<path style="fill:#E58200;" d="M66.298,499.742l119.735-131.586l-18.084-18.084L48.215,481.658
	c-4.871,5.526-13.396,5.795-18.605,0.586l18.084,18.084C52.903,505.537,61.427,505.268,66.298,499.742z"/>
<polygon style="fill:#FE8901;" points="135.56,339.51 175.634,379.583 186.034,368.156 146.988,329.111 "/>
<polygon style="fill:#E57501;" points="175.634,379.583 186.034,368.156 167.95,350.072 157.55,361.5 "/>
<path style="fill:#1A1A1A;" d="M501.944,260.432l-68.098-68.097c-3.098-3.097-8.122-3.097-11.219,0
	c-3.098,3.099-3.098,8.122,0,11.22l68.098,68.097c1.467,1.467,2.275,3.417,2.275,5.492s-0.808,4.026-2.275,5.492l-52.408,52.409
	c-1.467,1.467-3.417,2.274-5.492,2.274c-2.074,0-4.026-0.808-5.493-2.275L173.821,81.537c-3.029-3.03-3.029-7.958,0-10.987
	l26.555-26.555c0.002-0.002,0.003-0.003,0.005-0.005c0.002-0.002,0.003-0.003,0.005-0.005l25.843-25.843
	c3.029-3.029,7.957-3.029,10.987,0l164.002,164.002c3.098,3.097,8.122,3.097,11.219,0c3.098-3.099,3.098-8.122,0-11.22
	L248.434,6.922C243.97,2.458,238.034,0,231.721,0c-6.313,0-12.249,2.458-16.713,6.922L194.77,27.161l-2.651-2.651
	c-10.097-10.097-26.527-10.097-36.624,0l-47.788,47.788c-10.097,10.098-10.097,26.527,0,36.625l127.287,127.288
	c4.243,4.243,6.581,9.884,6.581,15.885s-2.337,11.643-6.581,15.886l-50.299,50.299l-19.288-19.288
	c-2.693-2.693-6.274-4.175-10.082-4.175c-3.809,0-7.39,1.482-10.083,4.175l-9.712,9.712c-5.55,5.55-5.559,14.573-0.03,20.136
	l-53.214,48.421c-3.241,2.948-3.478,7.966-0.529,11.208c2.949,3.24,7.968,3.478,11.208,0.528l53.766-48.922l28.341,28.341
	L60.43,494.402c-0.028,0.031-0.056,0.062-0.084,0.094c-1.203,1.365-2.692,1.609-3.473,1.634c-0.782,0.029-2.283-0.126-3.57-1.413
	l-32.877-32.876c-1.287-1.287-1.438-2.789-1.413-3.57c0.024-0.78,0.27-2.27,1.634-3.473c0.032-0.026,0.063-0.055,0.094-0.084
	l50-45.497c3.24-2.948,3.477-7.967,0.529-11.208c-2.949-3.24-7.966-3.477-11.208-0.528l-49.959,45.459
	c-4.239,3.763-6.771,9.164-6.95,14.832c-0.179,5.691,2.027,11.263,6.053,15.29l32.876,32.876c3.875,3.874,9.18,6.062,14.646,6.061
	c0.214,0,0.429-0.003,0.644-0.01c5.667-0.179,11.068-2.711,14.831-6.95l114.103-125.396c2.689,2.674,6.256,4.148,10.05,4.148
	c3.809,0,7.39-1.483,10.083-4.176l9.711-9.712c2.693-2.693,4.177-6.274,4.177-10.083c0-3.809-1.483-7.39-4.176-10.083
	l-20.235-20.235l50.299-50.299c7.241-7.241,11.228-16.866,11.228-27.106c0-10.24-3.988-19.865-11.228-27.106L118.927,97.702
	c-3.911-3.91-3.911-10.274,0-14.183l47.788-47.788c3.91-3.911,10.274-3.911,14.184-0.001l2.651,2.651l-20.95,20.95
	c-9.215,9.215-9.215,24.21,0,33.426L416.11,346.266c4.464,4.464,10.399,6.922,16.713,6.922c6.314,0,12.25-2.458,16.713-6.922
	l20.95-20.95l4.961,4.96c1.549,1.549,3.58,2.323,5.61,2.323s4.061-0.774,5.61-2.324c3.098-3.098,3.098-8.122,0-11.219l-4.96-4.96
	l20.237-20.237C511.16,284.643,511.16,269.648,501.944,260.432z M196.356,367.259l-48.471-48.471l7.439-7.438l48.471,48.471
	L196.356,367.259z"/>
<path style="fill:#FF3E4C;" d="M460.264,297.987L460.264,297.987c-6.177,6.177-16.192,6.177-22.369,0L218.66,78.752
	c-6.177-6.177-6.177-16.192,0-22.369l0,0c6.177-6.177,16.192-6.177,22.369,0l219.235,219.235
	C466.441,281.796,466.441,291.81,460.264,297.987z"/>
</svg>