<svg xmlns="http://www.w3.org/2000/svg" xmlns:xlink="http://www.w3.org/1999/xlink" id="Group_34847" data-name="Group 34847" width="85.161" height="71.875" viewBox="0 0 85.161 71.875"><defs><clipPath id="clip-path"><rect id="Rectangle_726" data-name="Rectangle 726" width="85.161" height="71.875" fill="#0f1b71"></rect></clipPath></defs><g id="Group_34846" data-name="Group 34846" clip-path="url(#clip-path)"><path id="Path_36838" data-name="Path 36838" d="M85.161,143.415a50.38,50.38,0,0,1-1.182,5.495c-2.416,7.32-7.222,12.534-14.524,15.013-9.847,3.342-18.421.939-25.592-6.549-.438-.457-.819-.968-1.3-1.54-.3.36-.576.694-.861,1.017-5.758,6.531-12.93,9.416-21.6,8.2A23.51,23.51,0,0,1,.421,146.1c-.163-.893-.282-1.793-.421-2.69v-3.327c.223-1.275.354-2.575.682-3.822C2.911,127.8,8.158,122.006,16.47,119.3A22.4,22.4,0,0,1,37.439,122.7a64.166,64.166,0,0,1,5.291,4.771c.126-.152.388-.46.643-.773a23.663,23.663,0,0,1,5.3-4.754,1.733,1.733,0,0,1,2.025-.119,1.42,1.42,0,0,1,.659,1.73,3.032,3.032,0,0,1-1.072,1.3,21.681,21.681,0,0,0-5.411,5.346.96.96,0,0,0-.107,1.12,23.172,23.172,0,0,1,.012,20.827,1.014,1.014,0,0,0,.117,1.195,20.285,20.285,0,1,0,19.519-31.7c-.548-.076-1.1-.1-1.652-.183a1.665,1.665,0,0,1-1.542-1.817,1.7,1.7,0,0,1,1.9-1.475,23.609,23.609,0,0,1,21.9,21.289,2.37,2.37,0,0,0,.145.461ZM23.616,162.037A20.289,20.289,0,1,0,3.329,141.709a20.364,20.364,0,0,0,20.287,20.329" transform="translate(0 -93.522)" fill="#0f1b71"></path><path id="Path_36839" data-name="Path 36839" d="M276.328,248.258a6.831,6.831,0,0,1-6.533-4.948,1.645,1.645,0,0,1,.943-2.05,1.588,1.588,0,0,1,2.09.819c.115.22.2.457.3.685a3.494,3.494,0,0,0,6.71-1.669c-.02-.247-.086-.491-.11-.738a1.677,1.677,0,0,1,1.358-1.887,1.7,1.7,0,0,1,1.9,1.348,6.86,6.86,0,0,1-6.654,8.441" transform="translate(-213.641 -188.87)" fill="#0f1b71"></path><path id="Path_36840" data-name="Path 36840" d="M237.673,201.86c-.03-1.147.513-1.864,1.427-1.952a1.675,1.675,0,0,1,1.851,1.515,4.554,4.554,0,0,1-8.849,2.116,1.655,1.655,0,0,1,.987-2.037,1.656,1.656,0,0,1,2.113.939c.3.7.733,1.215,1.58.992s.981-.882.89-1.573" transform="translate(-183.792 -158.337)" fill="#0f1b71"></path><path id="Path_36841" data-name="Path 36841" d="M305.754,188.283a4.538,4.538,0,0,1-4.3-3.065,1.673,1.673,0,0,1,.874-2.227,1.608,1.608,0,0,1,2.168.961c.334.714.794,1.172,1.608.94.779-.222.916-.841.838-1.585a1.609,1.609,0,0,1,1.385-1.917,1.638,1.638,0,0,1,1.892,1.536,4.512,4.512,0,0,1-4.461,5.358" transform="translate(-238.679 -143.662)" fill="#0f1b71"></path><path id="Path_36842" data-name="Path 36842" d="M138.034,38.522a1.68,1.68,0,0,1-2.383,1.764,2.54,2.54,0,0,1-.595-.445c-1.728-1.717-3.456-3.433-5.166-5.168a1.707,1.707,0,0,1-.4-2.176,1.488,1.488,0,0,1,1.769-.738,2.5,2.5,0,0,1,1.038.629q2.551,2.5,5.046,5.051a5.3,5.3,0,0,1,.693,1.083" transform="translate(-102.378 -25.105)" fill="#0f1b71"></path><path id="Path_36843" data-name="Path 36843" d="M200.154,5.644c0,1.247.014,2.5,0,3.742a1.662,1.662,0,1,1-3.308.08q-.052-3.825,0-7.651a1.668,1.668,0,1,1,3.312.086c.015,1.247,0,2.495,0,3.742" transform="translate(-155.896 0.001)" fill="#0f1b71"></path><path id="Path_36844" data-name="Path 36844" d="M247.663,33.1a7.68,7.68,0,0,1-.837,1.432c-1.654,1.709-3.339,3.389-5.036,5.057a1.673,1.673,0,1,1-2.344-2.349c1.668-1.7,3.36-3.369,5.043-5.051a1.58,1.58,0,0,1,1.953-.448,5.906,5.906,0,0,1,1.222,1.359" transform="translate(-189.154 -24.998)" fill="#0f1b71"></path><path id="Path_36845" data-name="Path 36845" d="M262.33,125.318A1.612,1.612,0,0,1,260.8,123.6a1.658,1.658,0,0,1,1.8-1.546,1.611,1.611,0,0,1,1.528,1.718,1.652,1.652,0,0,1-1.8,1.545" transform="translate(-206.575 -96.677)" fill="#0f1b71"></path><path id="Path_36846" data-name="Path 36846" d="M200.264,73.679a1.682,1.682,0,0,1-1.678,1.61,1.651,1.651,0,1,1,.08-3.3,1.678,1.678,0,0,1,1.6,1.691" transform="translate(-156.018 -57.021)" fill="#0f1b71"></path><path id="Path_36847" data-name="Path 36847" d="M87.613,254.1a6.842,6.842,0,0,1-6.756-6.29c-.108-1.254.469-2.092,1.5-2.179.972-.082,1.671.639,1.8,1.858a3.5,3.5,0,0,0,6.972.177c.184-1.446.853-2.166,1.883-2.026,1.086.147,1.591,1.05,1.394,2.492a6.837,6.837,0,0,1-6.8,5.968" transform="translate(-64.035 -194.557)" fill="#0f1b71"></path><path id="Path_36848" data-name="Path 36848" d="M55.956,197.362a4.544,4.544,0,0,1,9.082.159,1.648,1.648,0,0,1-3.274.34,2.633,2.633,0,0,0-.594-1.217,1.161,1.161,0,0,0-1.828.554,5.045,5.045,0,0,0-.122.568,1.645,1.645,0,1,1-3.265-.4" transform="translate(-44.321 -152.91)" fill="#0f1b71"></path><path id="Path_36849" data-name="Path 36849" d="M136.579,197.374a1.644,1.644,0,1,1-3.257.452c-.052-.215-.019-.514-.151-.634-.346-.311-.753-.734-1.153-.753-.353-.017-.766.414-1.079.721-.15.148-.132.468-.187.711a1.633,1.633,0,0,1-1.8,1.357,1.684,1.684,0,0,1-1.47-1.731,4.549,4.549,0,0,1,9.092-.124" transform="translate(-100.981 -152.905)" fill="#0f1b71"></path></g></svg>