<svg xmlns="http://www.w3.org/2000/svg" xmlns:xlink="http://www.w3.org/1999/xlink" id="Group_34849" data-name="Group 34849" width="77.522" height="81.852" viewBox="0 0 77.522 81.852"><defs><clipPath id="clip-path"><rect id="Rectangle_727" data-name="Rectangle 727" width="77.522" height="81.852" fill="#0f1b71"></rect></clipPath></defs><g id="Group_34848" data-name="Group 34848" clip-path="url(#clip-path)"><path id="Path_36850" data-name="Path 36850" d="M54.653,0c.4.133.818.234,1.2.405a5.307,5.307,0,0,1,3.428,5.032c.053,2.476.013,4.954.014,7.431,0,.286,0,.572,0,.95h1.024q7.712,0,15.425,0c3.235,0,4.906,1.684,4.908,4.937q0,4.954,0,9.909c0,3.133-1.721,4.856-4.829,4.87-1.17.005-2.462-.263-3.476.146-.984.4-1.684,1.5-2.507,2.3-1.234,1.195-2.438,1.3-3.491-.035a6.3,6.3,0,0,0-5.936-2.465C57.21,33.7,55.5,31.828,55.5,28.6c0-1.221,0-2.441,0-3.519-2.244,0-4.416-.036-6.585.029a2.273,2.273,0,0,0-1.371.622c-.86.831-1.612,1.773-2.424,2.653A2.389,2.389,0,0,1,41.3,28.36c-.7-.772-1.413-1.528-2.05-2.346a2.285,2.285,0,0,0-2.141-.947c-.875.061-1.758.031-2.636.009-1.215-.03-2.429-.091-3.741-.142,0,1.287-.013,2.662,0,4.036a4.324,4.324,0,0,1-4.4,4.56,21.747,21.747,0,0,1-2.556-.015,2.531,2.531,0,0,0-2.363.987,20.589,20.589,0,0,1-1.762,1.739,2.022,2.022,0,0,1-2.938.01c-.782-.722-1.491-1.525-2.287-2.232a1.954,1.954,0,0,0-1.1-.464c-1.089-.062-2.184-.006-3.276-.026a4.313,4.313,0,0,1-4.455-4.516q-.023-5.314,0-10.628a4.3,4.3,0,0,1,4.561-4.559c5.3-.019,10.6-.006,15.9-.006h1.07V12.9c0-2.344,0-4.688,0-7.032A5.45,5.45,0,0,1,31.439.131.754.754,0,0,0,31.628,0h7.2c.586.368,1,.846.751,1.579s-.87.833-1.561.825C36.309,2.385,34.6,2.4,32.9,2.4a3.082,3.082,0,0,0-3.371,3.377q-.01,6.754,0,13.507a3.1,3.1,0,0,0,3.368,3.4c1.519.012,3.039.035,4.556-.007a4.084,4.084,0,0,1,3.421,1.565c.751.893,1.538,1.757,2.344,2.673.9-1,1.749-1.953,2.6-2.9a3.775,3.775,0,0,1,2.96-1.329q2.4.02,4.8,0A3.11,3.11,0,0,0,56.9,19.313q.009-6.794,0-13.587A3.089,3.089,0,0,0,53.55,2.4q-4.517-.009-9.033,0c-.675,0-1.291-.056-1.577-.795s.173-1.19.68-1.607ZM27.127,16.315a1.988,1.988,0,0,0-.376-.088c-5.595,0-11.189-.019-16.784.007a1.872,1.872,0,0,0-1.976,2.118q-.019,5.314,0,10.628a1.941,1.941,0,0,0,2.124,2.149c1.038.022,2.08.049,3.116-.006a3.538,3.538,0,0,1,2.977,1.237c.616.68,1.294,1.3,2.067,2.074.811-.867,1.529-1.652,2.268-2.418a2.837,2.837,0,0,1,2.152-.883q1.678.014,3.357,0c1.56-.013,2.264-.695,2.275-2.229.014-1.785.015-3.57-.009-5.354a1.773,1.773,0,0,0-.262-.884,5.727,5.727,0,0,1-.935-3.248c.019-1.032,0-2.065,0-3.1M68.16,34.532c.747-.833,1.376-1.518,1.986-2.22a3.389,3.389,0,0,1,2.913-1.187c.9.048,1.811.011,2.716.009,1.8,0,2.478-.66,2.481-2.438q.007-5.033,0-10.065c0-1.752-.663-2.411-2.418-2.412q-7.83-.006-15.66,0c-.281,0-.561.029-.879.046,0,1.02-.025,1.951.006,2.881a5.923,5.923,0,0,1-1.156,3.818,1.463,1.463,0,0,0-.243.8q-.032,2.6-.006,5.192a1.956,1.956,0,0,0,2.181,2.174c1.092.017,2.185.032,3.275,0a3.246,3.246,0,0,1,2.626,1.106c.647.7,1.314,1.389,2.177,2.3" transform="translate(-4.389 -0.001)" fill="#0f1b71"></path><path id="Path_36851" data-name="Path 36851" d="M5.826,167.666c.983-.736,1.895-1.517,2.9-2.142a24.19,24.19,0,0,1,2.8-1.347,6.205,6.205,0,0,0,3.76-4.08,2.019,2.019,0,0,0-1.722-2.766,6.68,6.68,0,0,0-4.188.648c-.243.109-.474.243-.721.341a1.093,1.093,0,0,1-1.488-.549,1.049,1.049,0,0,1,.343-1.487c2.489-1.41,5.108-2.058,7.85-.813a9.708,9.708,0,0,1,1.8,1.522,1.268,1.268,0,0,0,.742.357,6.282,6.282,0,0,1,6.925,6.056,12.331,12.331,0,0,1-1.689,7.037c-.065.116-.119.277-.222.326-.981.466-1.019,1.535-1.522,2.3-.869,1.33-1.83,2.6-2.752,3.895-.12.169-.346.332-.351.5q-.048,1.677,0,3.355c0,.135.258.31.432.383,1.3.551,2.6,1.1,3.915,1.6a1.01,1.01,0,0,0,.747-.149A26.369,26.369,0,0,1,26,181.028c2.256-1.013,4.559-1.919,6.855-2.84.437-.175.646-.394.588-.875a4.224,4.224,0,0,1,0-.958c.2-1.783.01-3.419-1.6-4.57a1.753,1.753,0,0,1-.434-.568,1.185,1.185,0,0,1,1.882-1.433c.4.425.747.908,1.171,1.308a5.974,5.974,0,0,0,8.936-.323,14.108,14.108,0,0,0,3.477-9.377,1.909,1.909,0,0,0-.575-1.144c-.741-.818-1.545-1.581-2.335-2.354a.984.984,0,0,0-.451-.24c-1-.226-2-.434-3.142-.679-.015.018-.164.2-.317.37a7.121,7.121,0,0,1-5.31,2.546,1.507,1.507,0,0,0-.736.168c-.843.542-1.634,1.165-2.493,1.677a1.132,1.132,0,0,0-.674,1.421c.172.64.272,1.3.382,1.956a1.2,1.2,0,1,1-2.335.486,4.859,4.859,0,0,0-1.775-3.266c-1.383-1.18-1.618-2.942-1.631-4.683a3.958,3.958,0,0,0-.525-2.025,5.915,5.915,0,0,1,3.331-8.518,1.619,1.619,0,0,0,1.078-.9,4.482,4.482,0,0,1,6.284-1.847,1.14,1.14,0,0,0,1.155.1A5.2,5.2,0,0,1,43,146.22c.143.191.274.39.314.446a15.445,15.445,0,0,1,3-.067,4.348,4.348,0,0,1,3.607,4.512,1.079,1.079,0,0,0,.55,1.088,4.259,4.259,0,0,1,1.817,4.677,10.4,10.4,0,0,1-2.763,5.222,1.939,1.939,0,0,0-.357,1.085,15.884,15.884,0,0,1-4.287,9.5,2.16,2.16,0,0,0-.733,1.8c.049.984-.006,1.972.027,2.957a.821.821,0,0,0,.313.628c2.024.865,4.066,1.69,6.234,2.579v-.958c0-3.783.009-7.567,0-11.35a12.928,12.928,0,0,1,2.161-7.316c.525-.8,1.169-1.007,1.8-.6s.732,1.1.217,1.886a11,11,0,0,0-1.787,6.274c.03,4.156.007,8.313.009,12.469a1.663,1.663,0,0,0,2.264,1.568c1.057-.438,2.106-.9,3.178-1.294a.909.909,0,0,0,.694-.976,3.68,3.68,0,0,0-.922-2.729,12.945,12.945,0,0,1-3.137-7.785c-.065-1.2.243-1.559,1.416-1.818.831-.184,1.669-.343,2.491-.564a8.463,8.463,0,0,0,6.24-6.032c.46-1.5,1.088-1.773,2.466-.992a8.825,8.825,0,0,1,4.348,6.727A12.961,12.961,0,0,1,68.828,178c-.8.929-.5,1.882-.535,2.852,0,.1.185.25.315.3,1.885.788,3.775,1.564,5.743,2.376.019-.316.043-.542.044-.768,0-4.769.01-9.538,0-14.308a10.642,10.642,0,0,0-15.254-9.84c-.9.4-1.578.225-1.888-.494-.29-.672.019-1.258.891-1.684a13.045,13.045,0,0,1,18.518,10.1,20.008,20.008,0,0,1,.128,2.23c.011,5.382,0,10.764.018,16.146a7.152,7.152,0,0,0,.258,1.3,18.076,18.076,0,0,1,.417,2.259c.072,1.088.025,2.184.017,3.276a2.823,2.823,0,0,1-3.172,3.139H17.566q-7.195,0-14.39,0A2.823,2.823,0,0,1,0,191.76c-.007-1.066,0-2.131,0-3.2a5.149,5.149,0,0,1,3.446-5.145c1.719-.715,3.439-1.43,5.17-2.115a.91.91,0,0,0,.65-.934,5.506,5.506,0,0,0-1.554-4.815c-.95-.917-1.392-2.356-2.086-3.547a6.5,6.5,0,0,0-.666-.808,4.406,4.406,0,0,1-.687-.857,13,13,0,0,1-.864-8.874,1.21,1.21,0,0,1,1.512-1.036,1.227,1.227,0,0,1,.787,1.661,10.744,10.744,0,0,0,.117,5.575m22.956-7.006c.851-.508,1.64-.939,2.381-1.44a3.15,3.15,0,0,0,1.043-1.006,1.4,1.4,0,0,1,1.613-.844,4.43,4.43,0,0,0,5.113-2.84c.517-1.185,1.443-1.349,2.269-.382a2.74,2.74,0,0,0,2.913,1c.933-.218,1.3.063,1.71.979a4.709,4.709,0,0,0,.944,1.443,25.38,25.38,0,0,0,2.05,1.655c.208-.436.439-.856.611-1.3a10.753,10.753,0,0,0,.514-1.591A2,2,0,0,0,48.4,153.85c-1.21-.315-1.465-.8-1.04-1.964a2.164,2.164,0,0,0-.8-2.671,2.128,2.128,0,0,0-2.707.294c-1.067.962-1.924.687-2.273-.729a2.861,2.861,0,0,0-4.5-1.768c-.975.648-1.275.619-2.136-.206a2.119,2.119,0,0,0-3.627,1.02,1.543,1.543,0,0,1-1.538,1.391,3.541,3.541,0,0,0-2.506,5.6,2.827,2.827,0,0,1,.6,1.988,8.489,8.489,0,0,0,.029,1.436,3.723,3.723,0,0,0,.882,2.417M57.613,170.3a11.865,11.865,0,0,0,4,7.285c1.565,1.322,2.825,1.34,4.33-.058,2.941-2.731,4.47-6.054,3.821-10.148a6.638,6.638,0,0,0-2.32-4.314c-3.378,5.2-3.378,5.2-9.827,7.234M5.634,185.113a1.537,1.537,0,0,0,.115.281c1.684,2.26,3.361,4.525,5.072,6.765a1.152,1.152,0,0,0,.806.328c1.409.032,2.821.048,4.229-.007a1.659,1.659,0,0,0,1.061-.487c1.406-1.561,2.789-3.144,4.117-4.772a13.847,13.847,0,0,0,1.135-1.987c-1.673-.688-3.113-1.293-4.568-1.86a.837.837,0,0,0-.625.144,5.571,5.571,0,0,1-6.442,0,.842.842,0,0,0-.625-.148c-1.429.556-2.842,1.15-4.274,1.739m8.994-19.838c-.972.468-2.038.9-3.016,1.473-1.3.765-2.543,1.621-3.766,2.5a1.07,1.07,0,0,0-.269.934A10.72,10.72,0,0,0,11.3,175.9c1.793,1.416,3.18,1.4,4.967-.035a11.65,11.65,0,0,0,3.564-5.206A1.183,1.183,0,0,0,19.4,169.1c-1.609-1.255-3.188-2.548-4.776-3.824m30.7,15.773c-.409-.179-.785-.309-1.128-.5a1.44,1.44,0,0,0-1.713.135,6.122,6.122,0,0,1-6.923.266,2.44,2.44,0,0,0-2.859-.117c-.135.082-.286.138-.491.235a23.994,23.994,0,0,1,4.447,11.4h4.171a23.926,23.926,0,0,1,4.494-11.424m2.323.917a21.008,21.008,0,0,0-4.367,10.469H53.41c0-1.981.038-3.9-.013-5.807a3.222,3.222,0,0,0-1.772-2.934c-1.272-.646-2.619-1.147-3.97-1.727m-13.423,10.5a21.148,21.148,0,0,0-3.95-9.968c-.214-.293-.384-.537-.83-.336-1.066.48-2.163.891-3.229,1.37a3.03,3.03,0,0,0-1.956,2.544c-.127,2.112-.036,4.236-.036,6.39Zm32.024.032h8.318c.5,0,.528-.347.528-.716,0-1.091-.006-2.182,0-3.273a2.853,2.853,0,0,0-1.969-2.882c-1.4-.566-2.8-1.155-4.2-1.728-.2-.083-.421-.132-.7-.218-.046,3.112-.361,6.055-1.973,8.818m-2.555-.668c1.7-1.936,2.859-8.609,1.986-11.329a4.645,4.645,0,0,1-4.078-.051c.131,3.976-.323,7.918,2.092,11.379m-7.9-6.792v7.422h5.419c-1.623-2.741-1.87-5.72-1.99-8.826l-3.429,1.4m-34.072-17.2a8.75,8.75,0,0,0,.7-4.354c-.26-2.349-1.984-3.943-4.05-3.721a1.056,1.056,0,0,0-.67.572,14.649,14.649,0,0,1-.826,2.134,1.171,1.171,0,0,0,.22,1.721,8.376,8.376,0,0,0,.751.713c1.262.968,2.536,1.922,3.878,2.935m14.114,7.1c0,1.022-.019,2.055.017,3.086a.918.918,0,0,0,.368.558,4.3,4.3,0,0,0,5.126,0,1.017,1.017,0,0,0,.389-.632c.041-1.006.018-2.015.018-3.018a23.173,23.173,0,0,1-2.958.371,23.154,23.154,0,0,1-2.961-.361m-32.6,11.111a6.851,6.851,0,0,0-.765,1.81c-.111,1.35-.074,2.713-.049,4.071,0,.189.268.53.418.534,1.685.038,3.371.024,5.2.024l-4.809-6.439m8.371-7.167c.241,1.015-.442,2.02.449,2.735a2.914,2.914,0,0,0,3.369.012c.933-.718.219-1.753.486-2.743a5.356,5.356,0,0,1-4.3,0M21.744,190.1l-2.021,2.35h2.021Z" transform="translate(0 -113.048)" fill="#0f1b71"></path><path id="Path_36852" data-name="Path 36852" d="M140.254,32.891a5.525,5.525,0,0,1,8.382-4.783.825.825,0,0,0,.992,0,5.5,5.5,0,0,1,7.949,6.789,10.29,10.29,0,0,1-3.458,4.413A37.048,37.048,0,0,1,150.072,42a2.056,2.056,0,0,1-1.655.114,16.466,16.466,0,0,1-7.1-5.76,6.258,6.258,0,0,1-1.062-3.461m2.4-.29a5.048,5.048,0,0,0,1.34,3.377,15.69,15.69,0,0,0,4.786,3.656.865.865,0,0,0,.707-.026,15.461,15.461,0,0,0,4.613-3.624,8.187,8.187,0,0,0,1.317-2.246,2.886,2.886,0,0,0-1.184-3.491,3.086,3.086,0,0,0-3.65.091c-1.251.91-1.682.911-2.9.013a2.926,2.926,0,0,0-3.227-.333,3.034,3.034,0,0,0-1.8,2.585" transform="translate(-110.305 -21.459)" fill="#0f1b71"></path><path id="Path_36853" data-name="Path 36853" d="M34.807,94.689a4.188,4.188,0,0,1,5.774-3.74,1.148,1.148,0,0,0,1.093.038,3.833,3.833,0,0,1,4.424.737,3.9,3.9,0,0,1,.921,4.466,8.88,8.88,0,0,1-3.35,3.76c-2.345,1.659-2.649,1.654-5.021.049A8.7,8.7,0,0,1,35.6,96.91a16.579,16.579,0,0,1-.79-2.221M45.131,94.5a7.4,7.4,0,0,0-1.077-1.288,1.288,1.288,0,0,0-1.636.1,1.794,1.794,0,0,1-2.521,0,1.4,1.4,0,0,0-1.844.018,1.552,1.552,0,0,0-.613,1.832,2.631,2.631,0,0,0,.6,1.1c.884.8,1.827,1.528,2.774,2.248a.668.668,0,0,0,.632,0c.992-.792,1.992-1.582,2.9-2.463a5.826,5.826,0,0,0,.782-1.552" transform="translate(-27.375 -71.246)" fill="#0f1b71"></path><path id="Path_36854" data-name="Path 36854" d="M273.592,90.65c1.139.685,2.536.168,3.976.043a3.931,3.931,0,0,1,3.847,5.233,6.764,6.764,0,0,1-2.2,3.071c-.752.628-1.594,1.146-2.387,1.726a2.233,2.233,0,0,1-2.736.056,11.481,11.481,0,0,1-4.134-3.664,4.135,4.135,0,0,1,3.636-6.466m5.655,4.241c-.024-1.459-1.43-2.3-2.418-1.591a2.056,2.056,0,0,1-2.806-.027,1.434,1.434,0,0,0-1.943.329,1.746,1.746,0,0,0-.113,2.216,8.27,8.27,0,0,0,3.216,2.794.632.632,0,0,0,.568-.059c.969-.779,1.959-1.542,2.846-2.409a3.941,3.941,0,0,0,.65-1.253" transform="translate(-211.749 -71.293)" fill="#0f1b71"></path></g></svg>